<svg xmlns="http://www.w3.org/2000/svg" viewBox="0 0 200 95"><defs><linearGradient id="wing" x2="0" y2="1"><stop stop-color="#352638"/><stop offset="1" stop-color="#0d0a10"/></linearGradient></defs><path d="M94 36C75 4 39 7 3 1C16 15 18 30 14 44C34 35 42 44 43 57C62 47 77 57 91 77L100 91L109 77C123 57 138 47 157 57C158 44 166 35 186 44C182 30 184 15 197 1C161 7 125 4 106 36L109 19L101 26L92 19Z" fill="url(#wing)" stroke="#8f739e" stroke-width="1.5"/><path d="M93 42Q64 30 18 13M107 42Q136 30 182 13M93 42L43 57M107 42L157 57" fill="none" stroke="#745781" stroke-width="1"/><ellipse cx="100" cy="51" rx="9" ry="23" fill="#17111c"/><circle cx="97" cy="37" r="1.5" fill="#edb4d2"/><circle cx="103" cy="37" r="1.5" fill="#edb4d2"/></svg>