<svg xmlns="http://www.w3.org/2000/svg" viewBox="0 0 90 340" fill="none"><path d="M45 0v280" stroke="#201721" stroke-width="1.5"/><g transform="translate(45 303)" stroke="#100e13" stroke-width="2.7" stroke-linecap="round"><path d="M-8-8Q-30-20-22-34M-10-3Q-35-12-33-22M-10 3Q-34 4-33 19M-7 10Q-24 18-18 32M8-8Q30-20 22-34M10-3Q35-12 33-22M10 3Q34 4 33 19M7 10Q24 18 18 32"/><ellipse rx="13" ry="18" fill="#100e13"/><circle cy="-15" r="9" fill="#100e13"/><g fill="#f5dae9" stroke="none"><circle cx="-4" cy="-17" r="2"/><circle cx="4" cy="-17" r="2"/></g></g></svg>