<svg xmlns="http://www.w3.org/2000/svg" viewBox="0 0 500 285" fill="none">
<defs>
<linearGradient id="glass" x2="1" y2=".2"><stop stop-color="#fff5ff" stop-opacity=".9"/><stop offset=".5" stop-color="#f9d4e9" stop-opacity=".3"/><stop offset="1" stop-color="#b791c1" stop-opacity=".7"/></linearGradient>
<linearGradient id="pink" x2=".8" y2="1"><stop stop-color="#f8b7d5"/><stop offset="1" stop-color="#b85488"/></linearGradient>
<linearGradient id="purple" x2="1" y2="1"><stop stop-color="#dbc4ee"/><stop offset="1" stop-color="#8a61ad"/></linearGradient>
<pattern id="glitter" width="27" height="31" patternUnits="userSpaceOnUse"><circle cx="8" cy="12" r="1.5" fill="#fff2df"/><path d="M20 21v8m-4-4h8" stroke="#fff2df" stroke-width="1.3"/></pattern>
<g id="bottle"><path d="M-21 0v29C-21 44-49 50-49 77v110Q0 206 49 187V77C49 50 21 44 21 29V0Z" fill="url(#glass)" stroke="#241925" stroke-width="3"/>
<path d="M-40 80Q0 70 40 80v101Q0 197-40 181Z" fill="currentColor"/><path d="M-40 80Q0 70 40 80v101Q0 197-40 181Z" fill="url(#glitter)"/>
<path d="M-31 58Q-39 66-39 85v75" stroke="#fff" stroke-opacity=".65" stroke-width="5" stroke-linecap="round"/>
<rect x="-22" y="-21" width="44" height="29" rx="5" fill="#ac7b60" stroke="#241925" stroke-width="3"/><path d="M-13-14v8m12-11v8m13-3v8" stroke="#79543f" stroke-width="2"/>
<rect x="-29" y="8" width="58" height="12" rx="6" fill="#f8deee" stroke="#241925" stroke-width="3"/>
<path d="M-21 28Q0 34 21 28M0 32Q-27 13-27 31T0 32Q25 11 26 31T0 32L-15 57M0 32l16 27" stroke="#241925" stroke-width="2.5" stroke-linecap="round"/>
<rect x="-33" y="105" width="66" height="55" rx="3" fill="#fff5e9" stroke="#342336" stroke-width="1.5"/></g>
</defs>
<ellipse cx="250" cy="267" rx="201" ry="12" fill="#813660" opacity=".13"/>
<g transform="translate(104 75) rotate(-9)"><use href="#bottle" color="#ad8dca"/><text y="126" text-anchor="middle" font-family="Georgia,serif" font-weight="bold" font-size="13" fill="#211521">BABY<tspan x="0" dy="18">DUST</tspan></text></g>
<g transform="translate(253 39)"><use href="#bottle" color="#de87b0"/><text y="126" text-anchor="middle" font-family="Georgia,serif" font-weight="bold" font-size="13" fill="#211521">LOVE<tspan x="0" dy="18">POTION</tspan></text><path d="M0 182c-24-14-8-27 0-15 8-12 24 1 0 15Z" fill="#332039"/></g>
<g transform="translate(396 75) rotate(9)"><use href="#bottle" color="#ad8dca"/><text y="126" text-anchor="middle" font-family="Georgia,serif" font-weight="bold" font-size="13" fill="#211521">BOO<tspan x="0" dy="18">JUICE</tspan></text></g>
<g fill="#a36cae"><path d="M37 41l4 12 12 4-12 4-4 12-4-12-12-4 12-4Z"/><path d="M459 25l4 12 12 4-12 4-4 12-4-12-12-4 12-4Z"/><path d="M175 19l3 9 9 3-9 3-3 9-3-9-9-3 9-3Z"/></g>
<g fill="#c67398"><circle cx="181" cy="92" r="3"/><circle cx="321" cy="65" r="3"/><circle cx="39" cy="126" r="3"/></g>
</svg>